<svg width="334" height="313" viewBox="0 0 334 313" fill="none" xmlns="http://www.w3.org/2000/svg">
<g clip-path="url(#clip0_15_320)">
<path d="M308.75 239.454L323.734 241.8C328.806 235.647 332.302 228.347 333.919 220.533C322.963 229.519 306.302 224.744 293.016 229.65C288.885 231.212 285.157 233.685 282.108 236.887C279.06 240.089 276.771 243.937 275.409 248.146L268.086 256.039C274.714 258.669 281.833 259.827 288.951 259.434C296.069 259.042 303.018 257.107 309.318 253.765C312.834 251.855 316.096 249.509 319.027 246.782C313.784 243.474 308.75 239.454 308.75 239.454Z" fill="#F2F2F2"/>
<path d="M303.432 215.444L317.887 210.848C319.688 203.075 319.568 194.978 317.537 187.262C311.73 200.2 294.692 203.371 284.985 213.699C281.982 216.943 279.746 220.823 278.443 225.051C277.14 229.279 276.804 233.746 277.458 238.122L274.417 248.459C281.521 247.851 288.407 245.706 294.604 242.174C300.8 238.642 306.158 233.806 310.31 227.999C312.606 224.718 314.482 221.16 315.891 217.41C309.726 216.792 303.432 215.444 303.432 215.444Z" fill="#F2F2F2"/>
<path d="M334 260.821C334 260.899 333.985 260.976 333.956 261.047C333.926 261.119 333.883 261.184 333.828 261.239C333.774 261.293 333.709 261.337 333.637 261.366C333.566 261.396 333.489 261.411 333.412 261.411H0.588247C0.432234 261.411 0.28261 261.349 0.172292 261.238C0.0619749 261.128 0 260.978 0 260.821C0 260.665 0.0619749 260.515 0.172292 260.405C0.28261 260.294 0.432234 260.232 0.588247 260.232H333.412C333.489 260.232 333.566 260.247 333.637 260.276C333.709 260.306 333.774 260.349 333.828 260.404C333.883 260.459 333.926 260.524 333.956 260.596C333.985 260.667 334 260.744 334 260.821Z" fill="#CCCCCC"/>
<path d="M137.915 235.694C196.612 235.694 244.195 188.017 244.195 129.206C244.195 70.3936 196.612 22.7171 137.915 22.7171C79.2188 22.7171 31.6357 70.3936 31.6357 129.206C31.6357 188.017 79.2188 235.694 137.915 235.694Z" fill="#E6E6E6"/>
<path d="M229.365 129.206C229.376 143.503 226.043 157.604 219.633 170.378C213.223 183.152 203.914 194.243 192.454 202.762C191.688 203.336 190.907 203.896 190.121 204.441C174.796 215.114 156.579 220.835 137.915 220.835C119.252 220.835 101.035 215.114 85.7097 204.441C84.9237 203.896 84.1427 203.336 83.3765 202.762C71.9242 194.236 62.6217 183.143 56.2125 170.371C49.8033 157.599 46.4653 143.501 46.4653 129.206C46.4653 114.91 49.8033 100.812 56.2125 88.0403C62.6217 75.2681 71.9242 64.1755 83.3765 55.6493C84.1427 55.0747 84.9237 54.5151 85.7097 53.9702C101.035 43.2967 119.252 37.576 137.915 37.576C156.579 37.576 174.796 43.2967 190.121 53.9702C190.907 54.5151 191.688 55.0747 192.454 55.6493C203.914 64.1681 213.223 75.2591 219.633 88.0329C226.043 100.807 229.376 114.908 229.365 129.206Z" fill="white"/>
<path d="M137.915 212.91C184.054 212.91 221.456 175.434 221.456 129.206C221.456 82.9766 184.054 45.5007 137.915 45.5007C91.777 45.5007 54.3745 82.9766 54.3745 129.206C54.3745 175.434 91.777 212.91 137.915 212.91Z" fill="#5E008A"/>
<path opacity="0.2" d="M138.133 45.7347C136.867 45.7347 135.608 45.7679 134.355 45.8237C155.47 47.6828 175.09 57.5142 189.24 73.3261C203.39 89.1381 211.012 109.748 210.562 130.981C210.112 152.213 201.624 172.481 186.817 187.677C172.01 202.873 151.992 211.862 130.818 212.821C133.229 213.031 135.668 213.144 138.133 213.144C160.29 213.144 181.539 204.325 197.205 188.628C212.872 172.93 221.674 151.639 221.674 129.44C221.674 107.24 212.872 85.949 197.205 70.2513C181.539 54.5536 160.29 45.7347 138.133 45.7347V45.7347Z" fill="black"/>
<path d="M138.163 39.5572C137.442 39.5584 136.751 39.8458 136.242 40.3564C135.732 40.867 135.445 41.5592 135.444 42.2813V54.1684C135.444 54.8908 135.73 55.5837 136.24 56.0946C136.75 56.6055 137.442 56.8925 138.163 56.8925C138.884 56.8925 139.575 56.6055 140.085 56.0946C140.595 55.5837 140.881 54.8908 140.881 54.1684V42.2813C140.88 41.5592 140.593 40.867 140.084 40.3564C139.574 39.8458 138.883 39.5584 138.163 39.5572Z" fill="white"/>
<path d="M192.454 55.6493C191.688 55.0747 190.907 54.5151 190.121 53.9702C189.649 53.9394 189.178 54.0324 188.753 54.24C188.328 54.4476 187.965 54.7626 187.699 55.154L181.02 64.9757C180.615 65.5727 180.462 66.3068 180.597 67.0165C180.731 67.7261 181.141 68.3532 181.737 68.7597C182.333 69.1663 183.066 69.319 183.774 69.1843C184.482 69.0497 185.108 68.6386 185.514 68.0416L192.192 58.2199C192.446 57.8473 192.603 57.4169 192.649 56.9679C192.695 56.519 192.628 56.0657 192.454 55.6493Z" fill="white"/>
<path d="M222.796 100.434C222.662 100.103 222.464 99.8013 222.213 99.5469C221.962 99.2925 221.664 99.09 221.336 98.9511C221.007 98.8122 220.654 98.7395 220.297 98.7373C219.941 98.7351 219.587 98.8033 219.257 98.938L208.263 103.411C207.595 103.683 207.063 104.21 206.783 104.875C206.503 105.54 206.499 106.29 206.77 106.958C207.041 107.627 207.566 108.161 208.23 108.442C208.894 108.723 209.641 108.729 210.309 108.458L221.303 103.985C221.97 103.711 222.502 103.184 222.781 102.518C223.061 101.853 223.066 101.103 222.796 100.434Z" fill="white"/>
<path d="M94.8101 64.9757L88.1318 55.154C87.8657 54.7627 87.5023 54.4476 87.0775 54.24C86.6527 54.0324 86.1812 53.9394 85.7096 53.9702C84.9236 54.5151 84.1426 55.0748 83.3764 55.6493C83.2027 56.0657 83.1357 56.519 83.1815 56.9679C83.2272 57.4169 83.3843 57.8473 83.6384 58.2199L90.3167 68.0416C90.7225 68.6386 91.3483 69.0497 92.0566 69.1844C92.7648 69.319 93.4975 69.1663 94.0933 68.7597C94.6892 68.3532 95.0995 67.7261 95.2339 67.0165C95.3683 66.3068 95.2159 65.5727 94.8101 64.9757Z" fill="white"/>
<path d="M67.5681 103.411L56.5743 98.938C55.9064 98.6663 55.158 98.6715 54.4939 98.9525C53.8298 99.2335 53.3043 99.7673 53.0329 100.436C52.7616 101.106 52.7666 101.855 53.047 102.521C53.3273 103.186 53.86 103.713 54.5278 103.985L65.5216 108.458C66.1894 108.729 66.9373 108.723 67.601 108.442C68.2647 108.161 68.7899 107.627 69.0611 106.958C69.3323 106.289 69.3274 105.54 69.0475 104.875C68.7675 104.21 68.2354 103.683 67.5681 103.411V103.411Z" fill="white"/>
<path d="M138.163 201.519C137.442 201.52 136.751 201.807 136.242 202.318C135.732 202.828 135.445 203.521 135.444 204.243V216.13C135.444 216.852 135.73 217.545 136.24 218.056C136.75 218.567 137.442 218.854 138.163 218.854C138.884 218.854 139.575 218.567 140.085 218.056C140.595 217.545 140.881 216.852 140.881 216.13V204.243C140.88 203.521 140.593 202.828 140.084 202.318C139.574 201.807 138.883 201.52 138.163 201.519Z" fill="white"/>
<path d="M192.192 200.191L185.514 190.369C185.313 190.074 185.056 189.821 184.757 189.625C184.459 189.429 184.125 189.293 183.774 189.227C183.423 189.16 183.063 189.163 182.713 189.236C182.364 189.309 182.032 189.45 181.737 189.651C181.442 189.853 181.189 190.11 180.994 190.409C180.798 190.708 180.663 191.043 180.596 191.395C180.53 191.746 180.533 192.107 180.606 192.457C180.679 192.807 180.819 193.14 181.02 193.435L187.699 203.257C187.965 203.648 188.328 203.963 188.753 204.171C189.178 204.379 189.649 204.472 190.121 204.441C190.907 203.896 191.688 203.336 192.454 202.762C192.628 202.345 192.695 201.892 192.649 201.443C192.603 200.994 192.446 200.564 192.192 200.191Z" fill="white"/>
<path d="M221.303 154.426L210.309 149.953C209.641 149.682 208.893 149.687 208.229 149.968C207.565 150.249 207.039 150.783 206.768 151.452C206.496 152.121 206.501 152.871 206.782 153.536C207.062 154.202 207.595 154.728 208.263 155L219.256 159.473C219.924 159.744 220.672 159.738 221.336 159.457C222 159.176 222.525 158.643 222.796 157.974C223.067 157.305 223.062 156.555 222.782 155.89C222.502 155.225 221.97 154.698 221.303 154.426V154.426Z" fill="white"/>
<path d="M94.0933 189.651C93.4974 189.245 92.7648 189.092 92.0566 189.227C91.3484 189.362 90.7226 189.773 90.3167 190.369L83.6384 200.191C83.3843 200.564 83.2272 200.994 83.1815 201.443C83.1357 201.892 83.2027 202.345 83.3764 202.762C84.1426 203.336 84.9236 203.896 85.7096 204.441C86.1812 204.472 86.6527 204.379 87.0775 204.171C87.5023 203.963 87.8657 203.648 88.1318 203.257L94.8101 193.435C95.0111 193.14 95.1519 192.807 95.2246 192.457C95.2974 192.107 95.3005 191.746 95.234 191.395C95.1674 191.043 95.0324 190.708 94.8367 190.409C94.641 190.11 94.3884 189.853 94.0933 189.651Z" fill="white"/>
<path d="M69.0611 151.449C68.9268 151.118 68.7287 150.817 68.4781 150.562C68.2275 150.308 67.9294 150.105 67.6007 149.966C67.272 149.828 66.9192 149.755 66.5625 149.753C66.2058 149.75 65.8521 149.819 65.5217 149.953L54.5279 154.426C53.8606 154.698 53.3285 155.225 53.0485 155.89C52.7686 156.555 52.7637 157.305 53.0349 157.974C53.3061 158.643 53.8313 159.176 54.495 159.457C55.1587 159.739 55.9066 159.744 56.5744 159.473L67.5682 155C68.2352 154.727 68.7668 154.199 69.0466 153.534C69.3264 152.868 69.3316 152.119 69.0611 151.449Z" fill="white"/>
<path d="M141.69 127.854C141.941 129.343 141.592 130.871 140.72 132.103C139.848 133.334 138.524 134.169 137.039 134.424L88.7938 142.647C88.0578 142.772 87.3044 142.751 86.5766 142.585C85.8487 142.419 85.1607 142.11 84.5518 141.677C83.9428 141.245 83.425 140.696 83.0277 140.063C82.6304 139.43 82.3614 138.724 82.2363 137.987C82.1111 137.249 82.1321 136.494 82.2981 135.765C82.464 135.036 82.7718 134.346 83.2036 133.736C83.6355 133.126 84.1831 132.607 84.8151 132.209C85.4472 131.811 86.1513 131.542 86.8872 131.416L135.132 123.194C136.618 122.942 138.143 123.292 139.373 124.165C140.602 125.039 141.435 126.365 141.69 127.854Z" fill="#3F3D56"/>
<path d="M192.467 181.411C191.774 182.109 190.833 182.503 189.85 182.507C188.867 182.511 187.922 182.124 187.224 181.431L135.289 129.802C134.592 129.108 134.198 128.165 134.195 127.181C134.191 126.196 134.578 125.25 135.27 124.551C135.963 123.852 136.903 123.457 137.886 123.453C138.869 123.449 139.813 123.835 140.511 124.528L192.446 176.157C193.143 176.852 193.537 177.795 193.541 178.78C193.545 179.764 193.158 180.711 192.467 181.411Z" fill="#3F3D56"/>
<path d="M137.915 135.644C141.465 135.644 144.342 132.762 144.342 129.206C144.342 125.649 141.465 122.767 137.915 122.767C134.366 122.767 131.489 125.649 131.489 129.206C131.489 132.762 134.366 135.644 137.915 135.644Z" fill="#CCCCCC"/>
<path d="M93.6517 17.5556C83.7876 33.0942 68.7371 43.4064 50.176 50.1809C49.8093 50.4561 49.392 50.6563 48.948 50.7699C48.504 50.8836 48.0421 50.9085 47.5885 50.8433C47.1349 50.778 46.6986 50.6239 46.3044 50.3897C45.9103 50.1555 45.566 49.8458 45.2913 49.4784C35.2091 35.9902 37.4857 16.7131 50.7921 6.40658C54.0091 3.91916 57.6872 2.0968 61.6129 1.0453C65.5385 -0.00619972 69.6336 -0.265896 73.6602 0.281295C77.6869 0.828485 81.565 2.17166 85.0693 4.23284C88.5736 6.29402 91.6344 9.03215 94.074 12.2883L94.3529 12.6613C94.6276 13.0288 94.8274 13.4469 94.9408 13.8918C95.0542 14.3366 95.0791 14.7995 95.014 15.254C94.9488 15.7084 94.795 16.1456 94.5613 16.5405C94.3276 16.9354 94.0185 17.2804 93.6517 17.5556Z" fill="#E6E6E6"/>
<path d="M181.757 12.2882C184.196 9.03213 187.257 6.294 190.761 4.23282C194.266 2.17164 198.144 0.828472 202.17 0.281281C206.197 -0.265909 210.292 -0.00622041 214.218 1.04528C218.143 2.09678 221.822 3.91914 225.039 6.40656C238.345 16.713 240.621 35.9902 230.539 49.4783C230.265 49.8458 229.92 50.1555 229.526 50.3897C229.132 50.6239 228.696 50.778 228.242 50.8432C227.789 50.9085 227.327 50.8835 226.883 50.7699C226.439 50.6562 226.021 50.4561 225.655 50.1808C208.424 43.571 194.294 32.1326 182.179 17.5556C181.438 16.9997 180.948 16.1718 180.817 15.2539C180.685 14.3361 180.923 13.4035 181.478 12.6613L181.757 12.2882Z" fill="#E6E6E6"/>
<path d="M177.433 221.463C176.805 221.817 176.342 222.406 176.146 223.101C175.951 223.796 176.038 224.54 176.388 225.171L192.079 253.265C192.431 253.895 193.019 254.36 193.713 254.556C194.407 254.752 195.15 254.664 195.779 254.312C196.408 253.959 196.872 253.37 197.068 252.675C197.264 251.98 197.176 251.235 196.824 250.605L181.134 222.51C180.781 221.881 180.193 221.417 179.499 221.221C178.806 221.024 178.063 221.112 177.433 221.463Z" fill="#E6E6E6"/>
<path d="M94.6973 222.51L79.0066 250.605C78.6546 251.235 78.567 251.98 78.7631 252.675C78.9591 253.37 79.4226 253.959 80.0518 254.311C80.6809 254.664 81.4241 254.752 82.118 254.556C82.8118 254.36 83.3995 253.895 83.7517 253.265L99.4425 225.171C99.6169 224.859 99.7283 224.515 99.7702 224.16C99.8121 223.804 99.7838 223.444 99.6868 223.1C99.5898 222.756 99.426 222.434 99.2049 222.153C98.9837 221.872 98.7095 221.637 98.3979 221.463C98.0863 221.288 97.7434 221.176 97.3887 221.135C97.0341 221.093 96.6747 221.121 96.3311 221.218C95.9874 221.316 95.6663 221.48 95.386 221.701C95.1057 221.923 94.8716 222.198 94.6973 222.51H94.6973Z" fill="#E6E6E6"/>
<path d="M195.257 260.459C199.898 260.459 203.661 256.689 203.661 252.039C203.661 247.388 199.898 243.619 195.257 243.619C190.616 243.619 186.854 247.388 186.854 252.039C186.854 256.689 190.616 260.459 195.257 260.459Z" fill="#E6E6E6"/>
<path d="M201.189 45.0054C205.83 45.0054 209.592 41.2356 209.592 36.5854C209.592 31.9351 205.83 28.1654 201.189 28.1654C196.548 28.1654 192.785 31.9351 192.785 36.5854C192.785 41.2356 196.548 45.0054 201.189 45.0054Z" fill="#E6E6E6"/>
<path d="M137.421 25.1936C142.062 25.1936 145.825 21.4238 145.825 16.7736C145.825 12.1234 142.062 8.35359 137.421 8.35359C132.78 8.35359 129.018 12.1234 129.018 16.7736C129.018 21.4238 132.78 25.1936 137.421 25.1936Z" fill="#E6E6E6"/>
<path d="M76.6193 44.0148C81.2605 44.0148 85.0228 40.245 85.0228 35.5948C85.0228 30.9446 81.2605 27.1748 76.6193 27.1748C71.9782 27.1748 68.2158 30.9446 68.2158 35.5948C68.2158 40.245 71.9782 44.0148 76.6193 44.0148Z" fill="#E6E6E6"/>
<path d="M82.0568 260.459C86.698 260.459 90.4603 256.689 90.4603 252.039C90.4603 247.388 86.698 243.619 82.0568 243.619C77.4157 243.619 73.6533 247.388 73.6533 252.039C73.6533 256.689 77.4157 260.459 82.0568 260.459Z" fill="#E6E6E6"/>
<path d="M188.665 176.675C188.996 177.195 189.437 177.635 189.957 177.966C190.477 178.296 191.062 178.509 191.672 178.588C192.283 178.667 192.903 178.611 193.489 178.424C194.076 178.237 194.614 177.924 195.067 177.505L208.253 184.585L207.546 176.828L195.132 171.294C194.381 170.579 193.394 170.165 192.359 170.131C191.323 170.096 190.311 170.443 189.514 171.106C188.716 171.77 188.19 172.703 188.033 173.729C187.877 174.756 188.102 175.804 188.665 176.675H188.665Z" fill="#FFB7B7"/>
<path d="M198.273 179.382L203.44 172.235L228.334 184.026L259.312 178.203C260.843 177.915 262.419 177.968 263.927 178.359C265.436 178.75 266.84 179.469 268.04 180.465C269.239 181.46 270.206 182.709 270.87 184.121C271.534 185.533 271.88 187.074 271.883 188.635C271.885 191.454 270.771 194.159 268.785 196.157C266.799 198.154 264.103 199.281 261.289 199.289L225.789 199.355L198.273 179.382Z" fill="#3F3D56"/>
<path d="M190.314 302.823L185.086 300.318L192.268 278.422L199.984 282.119L190.314 302.823Z" fill="#FFB7B7"/>
<path d="M225.365 299.293C224.985 299.531 224.604 299.766 224.22 300.001C223.456 300.47 222.684 300.932 221.912 301.386C221.524 301.613 221.133 301.84 220.745 302.063V302.075L220.722 302.079L220.714 302.082L220.123 302.229L219.274 299.982L218.882 298.947L218.329 297.481L217.316 294.799L211.978 280.677L220.276 278.626L220.587 279.9H220.591L220.745 280.531L223.644 292.313L224.236 294.722L224.255 294.795L224.612 296.234L224.919 297.481L225.261 298.874L225.365 299.293Z" fill="#FFB7B7"/>
<path d="M274.871 249.701C274.344 250.548 273.807 251.391 273.265 252.226C272.259 253.78 271.226 255.312 270.166 256.82C270.166 256.824 270.162 256.824 270.159 256.828C269.54 257.402 268.857 257.901 268.123 258.317C268.092 258.34 268.058 258.355 268.027 258.374C267.487 258.674 266.911 258.905 266.314 259.063C266.099 259.117 265.88 259.171 265.665 259.225C264.89 259.409 264.122 259.567 263.357 259.706C261.998 259.948 260.654 260.121 259.317 260.229C259.21 260.241 259.102 260.248 258.995 260.256C253.499 260.66 248.15 260.01 242.566 258.944C239.809 258.421 236.994 257.793 234.079 257.143C233.127 256.928 232.171 256.716 231.203 256.504C231.13 256.489 231.053 256.47 230.976 256.454C229.594 256.15 228.188 255.85 226.748 255.554C224.935 255.181 223.065 254.819 221.122 254.477L221.26 257.22C221.375 259.331 221.813 261.411 222.558 263.388C223.388 265.82 224.045 267.744 222.658 271.749L221.99 273.689C222.336 274.652 222.455 275.682 222.337 276.699C222.219 277.716 221.868 278.691 221.31 279.549L221.176 279.753L226.748 293.878L227.109 294.794H224.256L220.746 294.798H214.797L206.214 277.544L205.803 276.721V276.678L206.69 243.522C206.702 243.229 206.725 242.933 206.763 242.641C206.92 241.311 207.339 240.026 207.996 238.861C208.654 237.696 209.536 236.673 210.592 235.853C211.604 235.061 212.763 234.478 214.002 234.138C215.241 233.799 216.534 233.709 217.808 233.875L220.746 234.256L226.748 235.034L230.976 235.584L231.061 235.595L243.53 237.211L244.425 233.556L244.59 233.494L249.84 231.567L267.996 224.898L268.043 224.883L269.237 224.444L269.379 224.675C269.421 224.745 269.463 224.814 269.502 224.883C270.682 227.003 271.643 229.239 272.371 231.555C273.593 235.339 274.6 239.189 275.385 243.087C275.42 243.256 275.45 243.41 275.477 243.549L275.489 243.591C275.5 243.657 275.508 243.699 275.512 243.71C275.93 245.457 275.639 247.589 274.871 249.701Z" fill="#2F2E41"/>
<path d="M275.637 237.482C275.579 237.236 275.507 236.986 275.43 236.743C274.82 234.907 274.11 233.107 273.302 231.349C272.396 229.348 271.309 227.205 270.015 224.885C269.389 223.761 268.716 222.593 267.995 221.379C267.634 220.771 267.259 220.152 266.87 219.521C266.855 219.492 266.838 219.463 266.82 219.436L266.708 219.251L248.744 221.66L242.054 222.557L241.655 225.897L241.559 226.724C241.555 226.724 241.555 226.724 241.559 226.728L241.29 228.983V228.986L240.933 231.965L240.902 231.961L230.975 230.672L220.744 229.344L215.249 228.632C213.975 228.466 212.681 228.555 211.443 228.895C210.204 229.234 209.045 229.817 208.033 230.61C206.977 231.43 206.095 232.453 205.438 233.618C204.78 234.784 204.361 236.068 204.204 237.398C204.17 237.667 204.147 237.944 204.135 238.217L198.951 250.526C195.848 257.888 193.873 265.676 193.09 273.629L189.289 285.807L189.83 285.857L197.887 286.607L200.014 286.807L204.7 279.955C205.233 279.173 205.74 278.369 206.213 277.546C206.99 276.201 207.682 274.808 208.283 273.375L218.417 249.21C219.2 249.345 219.976 249.473 220.744 249.595C224.297 250.172 227.707 250.643 230.975 251.007C241.601 252.196 250.802 252.289 258.993 251.281C261.294 251 263.517 250.63 265.664 250.172C266.451 250.007 267.228 249.829 267.995 249.638C268.175 249.595 268.352 249.553 268.529 249.507C270.116 249.097 271.575 248.294 272.773 247.173C273.97 246.052 274.868 244.647 275.384 243.089C275.999 241.282 276.087 239.337 275.637 237.482Z" fill="#2F2E41"/>
<path d="M191.984 299.247L186.328 296.531L185.44 296.104L184.023 299.59L174.131 301.772C173.642 301.879 173.2 302.14 172.869 302.517C172.539 302.894 172.338 303.368 172.295 303.867C172.252 304.367 172.37 304.868 172.631 305.296C172.892 305.724 173.283 306.057 173.747 306.247L183.413 310.198L186.481 307.432L185.728 311.145L189.369 312.634L193.359 299.909L191.984 299.247Z" fill="#2F2E41"/>
<path d="M226.748 293.878L227.109 294.794H226.748V293.878Z" fill="#2F2E41"/>
<path d="M224.778 294.99L218.851 297.047L217.921 297.369L219.362 300.845L213.865 309.37C213.593 309.791 213.462 310.289 213.492 310.789C213.522 311.29 213.711 311.768 214.032 312.154C214.352 312.539 214.788 312.812 215.274 312.932C215.76 313.052 216.272 313.013 216.734 312.821L226.378 308.814L226.615 304.685L228.688 307.854L232.321 306.346L226.22 294.491L224.778 294.99Z" fill="#2F2E41"/>
<path d="M274.159 243.057C273.807 243.056 273.46 242.97 273.149 242.806L241.871 226.43L241.509 224.948L240.828 220.257L240.838 220.213L243.812 206.472C243.758 206.353 243.644 206.16 243.515 205.941C242.187 203.687 238.146 196.825 245.859 187.378L259.401 171.558L271.024 171.057L271.156 171.224C274.264 175.133 276.36 179.75 277.258 184.666C278.156 189.581 277.827 194.643 276.302 199.401L275.092 221.301L276.39 225.724C277.149 228.323 277.023 231.101 276.033 233.621L276.331 240.783C276.342 241.076 276.295 241.369 276.191 241.644C276.087 241.919 275.929 242.17 275.727 242.382C275.524 242.594 275.28 242.763 275.011 242.879C274.742 242.995 274.452 243.056 274.159 243.057L274.159 243.057Z" fill="#3F3D56"/>
<path d="M247.028 261.118C247.557 260.805 248.012 260.378 248.36 259.87C248.708 259.361 248.94 258.782 249.04 258.173C249.14 257.565 249.106 256.942 248.94 256.348C248.774 255.754 248.48 255.204 248.079 254.737L255.599 241.779L247.837 242.217L241.886 254.455C241.146 255.183 240.699 256.156 240.628 257.192C240.558 258.228 240.869 259.254 241.503 260.075C242.137 260.896 243.049 261.456 244.067 261.649C245.086 261.841 246.139 261.652 247.027 261.118L247.028 261.118Z" fill="#FFB7B7"/>
<path d="M250.062 251.592L243.113 246.169L255.74 221.651L251.008 190.428C250.775 188.885 250.883 187.309 251.325 185.812C251.767 184.316 252.533 182.935 253.568 181.768C254.603 180.601 255.882 179.677 257.313 179.061C258.745 178.445 260.294 178.152 261.851 178.203C264.663 178.299 267.323 179.509 269.246 181.567C271.169 183.626 272.199 186.364 272.109 189.182L270.94 224.733L250.062 251.592Z" fill="#3F3D56"/>
<path d="M251.946 164.985V153.461C251.943 149.365 253.564 145.437 256.453 142.539C259.341 139.641 263.26 138.012 267.347 138.009C271.435 138.006 275.356 139.631 278.248 142.525C281.14 145.419 282.766 149.346 282.769 153.441V153.461C285.485 159.132 283.786 161.829 282.769 164.985C282.768 165.534 282.55 166.061 282.162 166.45C281.774 166.838 281.248 167.057 280.7 167.058H254.016C253.467 167.058 252.941 166.839 252.553 166.45C252.165 166.062 251.947 165.535 251.946 164.985Z" fill="#2F2E41"/>
<path d="M262.304 166.309C268.675 166.309 273.84 161.134 273.84 154.751C273.84 148.367 268.675 143.192 262.304 143.192C255.933 143.192 250.768 148.367 250.768 154.751C250.768 161.134 255.933 166.309 262.304 166.309Z" fill="#FFB7B7"/>
<path d="M274.377 157.781C274.273 157.764 274.168 157.742 274.064 157.726C272.264 157.406 270.465 157.092 268.671 156.766L268.506 152.692L266.332 156.342C261.374 157.99 256.735 157.058 252.371 155.002C250.932 154.317 249.535 153.546 248.189 152.692C248.556 150.438 249.42 148.295 250.72 146.42C252.02 144.544 253.721 142.983 255.7 141.852C255.866 141.758 256.025 141.675 256.19 141.592C256.191 141.592 256.192 141.592 256.192 141.592C256.193 141.592 256.194 141.591 256.194 141.591C256.195 141.59 256.195 141.59 256.195 141.589C256.196 141.588 256.196 141.588 256.196 141.587C256.476 141.454 256.763 141.328 257.049 141.212C259.289 140.335 261.732 140.113 264.093 140.571C266.454 141.03 268.637 142.151 270.388 143.803C273.91 147.172 275.495 152.736 274.377 157.781Z" fill="#2F2E41"/>
</g>
<defs>
<clipPath id="clip0_15_320">
<rect width="334" height="313" fill="white"/>
</clipPath>
</defs>
</svg>
